<svg id="Ebene_1" xmlns="http://www.w3.org/2000/svg" viewBox="0 0 32 32"><style>.st0{fill:none}.st1{fill:url(#SVGID_1_)}.st2{fill:#58595b}.st3{fill:url(#SVGID_2_)}.st4{fill:url(#SVGID_3_)}.st5{fill:url(#SVGID_4_)}.st6{fill:none;stroke:#4a4a4c;stroke-width:.5}.st7{opacity:.23;fill:#231f20;enable-background:new}.st8,.st9{fill:none;stroke:#a8abad;stroke-width:.5}.st9{stroke:#f16922}.st10{fill:#f16922}.st11{fill:#6d6e70}</style><path class="st0" d="M-1-1h58v58H-1V-1z" transform="translate(.552 .552) scale(.55172)"/><radialGradient id="SVGID_1_" cx="60.322" cy="11.221" r="54.288" gradientTransform="matrix(1 0 0 -1 0 31.52)" gradientUnits="userSpaceOnUse"><stop offset="0" stop-color="#faaf40"/><stop offset=".043" stop-color="#f9a538"/><stop offset=".112" stop-color="#f89d31"/><stop offset=".227" stop-color="#f89a2f"/><stop offset=".528" stop-color="#f7922d"/><stop offset="1" stop-color="#f37b28"/></radialGradient><path class="st1" d="M26.9 27.8v-10c0-2.1-.9-3.2-2.6-3.2s-2.6 1.1-2.6 3.2v10h-5.1v-10c0-2.1-.8-3.2-2.6-3.2s-2.6 1.1-2.6 3.2v10H6.3V17.2c0-2.2.7-3.8 2.3-5 1.3-1 3.2-1.5 5.4-1.5 2.3 0 4 .6 5.1 1.8.9-1.2 2.6-1.8 5.1-1.8 2.3 0 4.1.5 5.4 1.5 1.5 1.1 2.3 2.8 2.3 5v10.7l-5-.1z"/><path class="st2" d="M6.8 13.3c-.2.9-.4 1.8-.5 2.6 4.8 1.6 9.4 0 11.8-4.2-3.5-2.4-6.8.1-11.3 1.6"/><linearGradient id="SVGID_2_" gradientUnits="userSpaceOnUse" x1="6.338" y1="18.366" x2="17.897" y2="18.366" gradientTransform="matrix(1 0 0 -1 0 31.52)"><stop offset="0" stop-color="#929497"/><stop offset=".124" stop-color="#757578"/><stop offset=".279" stop-color="#575658"/><stop offset=".44" stop-color="#403e3f"/><stop offset=".609" stop-color="#302d2e"/><stop offset=".788" stop-color="#262223"/><stop offset="1" stop-color="#231f20"/></linearGradient><path class="st3" d="M6.8 12.6c-.2 1-.3 2-.5 3 4.6 1.6 9.2.2 11.6-3.9-3.1-3.5-6.5-.6-11.1.9"/><linearGradient id="SVGID_3_" gradientUnits="userSpaceOnUse" x1="8.556" y1="22.223" x2="13.355" y2="15.368" gradientTransform="matrix(1 0 0 -1 0 31.52)"><stop offset="0" stop-color="#231f20"/><stop offset="1" stop-color="#231f20" stop-opacity="0"/></linearGradient><path class="st4" d="M12.3 13.8c-2.1-.4-4.4.7-6 1.8-1-7.4 3.6-7.2 9.6-5.4-.4 1.8-1.1 4.2-2.2 5.7-.1-.9-.5-1.6-1.4-2.1"/><linearGradient id="SVGID_4_" gradientUnits="userSpaceOnUse" y1="22.029" x2="21.128" y2="22.029" gradientTransform="matrix(1 0 0 -1 0 31.52)"><stop offset="0" stop-color="#929497"/><stop offset=".124" stop-color="#757578"/><stop offset=".279" stop-color="#575658"/><stop offset=".44" stop-color="#403e3f"/><stop offset=".609" stop-color="#302d2e"/><stop offset=".788" stop-color="#262223"/><stop offset="1" stop-color="#231f20"/></linearGradient><path class="st5" d="M0 12.6C7.7 8 12.1 7.1 21.1 6.2 10.7 14.4 10.4 12.6 0 12.6"/><path class="st6" d="M21.1 6.2l-8.3 6"/><path class="st7" d="M11.2 9.4c.1 1-.1-.9 0 0"/><path class="st8" d="M0 12.6l12.8-.4"/><path class="st9" d="M10.4 9.5c-2.2.6-9.4 2.2-9.5 3.1-.2 1.7 0 4.4 0 4.4"/><path class="st10" d="M1.5 23.6c-.8-2-1.8-4.2-.6-6.9.8 2.6.6 4.5.6 6.9"/><ellipse transform="rotate(-19.61 10.126 9.384)" class="st11" cx="10.1" cy="9.4" rx=".4" ry=".2"/></svg>